# xmcd
#
# Track frame offsets:
#	182
#	11245
#	22315
#	36140
#	46777
#	59580
#	70682
#	84997
#	99247
#	110232
#	119527
#	128482
#
# Disc length: 1863 seconds
#
# Revision: 2
# Processed by: cddbd v1.4PL0 Copyright (c) Steve Scherf et al.
# Submitted via: EasyCDDAExtractor 4.6.0.1
#
DISCID=a007450c
DTITLE=Nat King Cole - Nat King Cole - Greatest Country Hits
DYEAR=1900
DGENRE=Country
TTITLE0=Your Cheatin' Heart
TTITLE1=He'll Have To Go
TTITLE2=Wolverton Mountain
TTITLE3=One Has My Name, The Other Has My Heart
TTITLE4=Ramblin' Rose
TTITLE5=Looking Back
TTITLE6=Goodnight Irene
TTITLE7=Dear Lonely Hearts
TTITLE8=Those Lazy-Hazy-Crazy Days of Summer
TTITLE9=It's a Lonesome Old Town
TTITLE10=Oh Mary Don't You Weep
TTITLE11=Miss You
EXTD=
EXTT0=
EXTT1=
EXTT2=
EXTT3=
EXTT4=
EXTT5=
EXTT6=
EXTT7=
EXTT8=
EXTT9=
EXTT10=
EXTT11=
PLAYORDER=
